<svg width="24" height="25" viewBox="0 0 24 25" fill="none" xmlns="http://www.w3.org/2000/svg">
<path fill-rule="evenodd" clip-rule="evenodd" d="M23.7015 23.0588C23.9944 23.3517 23.9944 23.8266 23.7015 24.1195C23.4086 24.4124 22.9338 24.4124 22.6409 24.1195L11.9606 13.4392L1.28033 24.1195C0.987437 24.4124 0.512563 24.4124 0.21967 24.1195C-0.0732233 23.8266 -0.0732233 23.3517 0.21967 23.0588L10.8999 12.3786L0.21967 1.6983C-0.0732233 1.40541 -0.0732233 0.930532 0.21967 0.637638C0.512563 0.344746 0.987437 0.344746 1.28033 0.637638L11.9606 11.3179L22.6409 0.637639C22.9338 0.344745 23.4086 0.344745 23.7015 0.637639C23.9944 0.930532 23.9944 1.40541 23.7015 1.6983L13.0213 12.3786L23.7015 23.0588Z" fill="#9A9A9A"/>
</svg>
