<svg width="102" height="102" viewBox="0 0 102 102" fill="none" xmlns="http://www.w3.org/2000/svg">
<circle cx="51" cy="51" r="51" fill="#999999"/>
<path fill-rule="evenodd" clip-rule="evenodd" d="M39.5723 55.7142V47.1428C39.5723 46.385 39.8733 45.6583 40.4091 45.1225C40.9449 44.5867 41.6716 44.2856 42.4294 44.2856H59.5723C60.33 44.2856 61.0568 44.5867 61.5926 45.1225C62.1284 45.6583 62.4294 46.385 62.4294 47.1428V55.7142C62.4294 56.472 62.1284 57.1987 61.5926 57.7345C61.0568 58.2703 60.33 58.5714 59.5723 58.5714H42.4294C41.6716 58.5714 40.9449 58.2703 40.4091 57.7345C39.8733 57.1987 39.5723 56.472 39.5723 55.7142Z" stroke="white" stroke-width="1.42857" stroke-linecap="round" stroke-linejoin="round"/>
<path fill-rule="evenodd" clip-rule="evenodd" d="M60.2868 47.8573C60.2868 47.4784 60.1363 47.115 59.8684 46.8471C59.6005 46.5792 59.2371 46.4287 58.8583 46.4287C58.4794 46.4287 58.116 46.5792 57.8481 46.8471C57.5802 47.115 57.4297 47.4784 57.4297 47.8573C57.4297 48.2362 57.5802 48.5995 57.8481 48.8674C58.116 49.1353 58.4794 49.2859 58.8583 49.2859C59.2371 49.2859 59.6005 49.1353 59.8684 48.8674C60.1363 48.5995 60.2868 48.2362 60.2868 47.8573Z" fill="white"/>
<path fill-rule="evenodd" clip-rule="evenodd" d="M55.2863 51.4287C55.2863 50.2921 54.8347 49.202 54.031 48.3983C53.2273 47.5945 52.1372 47.143 51.0006 47.143C49.8639 47.143 48.7738 47.5945 47.9701 48.3983C47.1664 49.202 46.7148 50.2921 46.7148 51.4287C46.7148 52.5654 47.1664 53.6554 47.9701 54.4592C48.7738 55.2629 49.8639 55.7144 51.0006 55.7144C52.1372 55.7144 53.2273 55.2629 54.031 54.4592C54.8347 53.6554 55.2863 52.5654 55.2863 51.4287ZM49.572 41.4287H52.4291C52.808 41.4287 53.1714 41.5792 53.4393 41.8471C53.7072 42.115 53.8577 42.4784 53.8577 42.8573V44.2859H48.1434V42.8573C48.1434 42.4784 48.2939 42.115 48.5618 41.8471C48.8297 41.5792 49.1931 41.4287 49.572 41.4287V41.4287Z" stroke="white" stroke-width="1.42857" stroke-linecap="round" stroke-linejoin="round"/>
</svg>
