<svg width="110" height="62" viewBox="0 0 110 62" fill="none" xmlns="http://www.w3.org/2000/svg">
<rect x="19" y="14.9868" width="90.9091" height="25" rx="12.5" fill="#C4C4C4"/>
<g filter="url(#filter0_d_574_759)">
<rect x="20.9092" y="16.9868" width="52" height="21" rx="10.5" fill="white"/>
</g>
<path d="M38.1332 30.5948H36.9452V22.9868H38.1332V30.5948ZM32.2892 26.7788C31.9292 27.4188 31.4492 27.9388 30.8492 28.3388C30.2572 28.7308 29.5852 28.9668 28.8332 29.0468V27.9548C29.6892 27.8348 30.3772 27.4468 30.8972 26.7908C31.4172 26.1268 31.7092 25.2908 31.7732 24.2828H28.9652V23.2508H35.6012V24.2828H32.9612C32.9532 24.7628 32.8732 25.2588 32.7212 25.7708L35.9012 28.0868L35.2412 28.9628L32.2892 26.7788ZM38.4092 32.0228V33.1028H29.4452V29.8388H30.6452V32.0228H38.4092ZM45.3801 24.7988H39.9321V23.8868H42.1041V22.8428H43.2921V23.8868H45.3801V24.7988ZM47.2281 28.9748H46.1241V23.0468H47.2281V25.3868H48.8601V22.9868H49.9641V29.3348H48.8601V26.4548H47.2281V28.9748ZM45.1281 27.2468C45.1281 27.8148 44.9001 28.2708 44.4441 28.6148C43.9881 28.9508 43.4121 29.1188 42.7161 29.1188C42.0201 29.1188 41.4441 28.9508 40.9881 28.6148C40.5321 28.2708 40.3041 27.8148 40.3041 27.2468C40.3041 26.6788 40.5321 26.2268 40.9881 25.8908C41.4441 25.5468 42.0201 25.3748 42.7161 25.3748C43.4121 25.3748 43.9881 25.5468 44.4441 25.8908C44.9001 26.2268 45.1281 26.6788 45.1281 27.2468ZM41.3721 27.2468C41.3721 27.5348 41.4961 27.7748 41.7441 27.9668C41.9921 28.1588 42.3161 28.2548 42.7161 28.2548C43.1161 28.2548 43.4401 28.1588 43.6881 27.9668C43.9361 27.7748 44.0601 27.5348 44.0601 27.2468C44.0601 26.9588 43.9361 26.7188 43.6881 26.5268C43.4401 26.3348 43.1161 26.2388 42.7161 26.2388C42.3161 26.2388 41.9921 26.3348 41.7441 26.5268C41.4961 26.7188 41.3721 26.9588 41.3721 27.2468ZM45.5121 29.5388C46.8881 29.5388 47.9921 29.6868 48.8241 29.9828C49.6641 30.2708 50.0841 30.7388 50.0841 31.3868C50.0841 32.0268 49.6641 32.4948 48.8241 32.7908C47.9921 33.0868 46.8881 33.2348 45.5121 33.2348C44.1361 33.2348 43.0281 33.0868 42.1881 32.7908C41.3561 32.4948 40.9401 32.0268 40.9401 31.3868C40.9401 30.7388 41.3561 30.2708 42.1881 29.9828C43.0281 29.6868 44.1361 29.5388 45.5121 29.5388ZM45.5121 32.3108C46.4801 32.3108 47.2761 32.2308 47.9001 32.0708C48.5241 31.9188 48.8361 31.6908 48.8361 31.3868C48.8361 31.0828 48.5241 30.8548 47.9001 30.7028C47.2761 30.5428 46.4801 30.4628 45.5121 30.4628C44.5441 30.4628 43.7481 30.5428 43.1241 30.7028C42.5001 30.8548 42.1881 31.0828 42.1881 31.3868C42.1881 31.6908 42.5001 31.9188 43.1241 32.0708C43.7481 32.2308 44.5441 32.3108 45.5121 32.3108ZM59.9624 25.6028C59.4584 26.0028 58.8144 26.3148 58.0304 26.5388C57.2464 26.7548 56.4184 26.8708 55.5464 26.8868V25.9148C56.1704 25.8988 56.7784 25.8188 57.3704 25.6748C57.9704 25.5228 58.4824 25.3108 58.9064 25.0388C59.3384 24.7668 59.6064 24.4428 59.7104 24.0668H55.7144V23.1068H64.5464V24.0668H60.9224C60.8904 24.3388 60.7984 24.5908 60.6464 24.8228L64.8224 25.9988L64.5104 26.9348L59.9624 25.6028ZM60.7184 28.5788V29.5508C61.9104 29.5908 62.8584 29.7588 63.5624 30.0548C64.2744 30.3428 64.6304 30.7868 64.6304 31.3868C64.6304 32.0428 64.2144 32.5188 63.3824 32.8148C62.5584 33.1108 61.4744 33.2588 60.1304 33.2588C58.7864 33.2588 57.6984 33.1108 56.8664 32.8148C56.0424 32.5188 55.6304 32.0428 55.6304 31.3868C55.6304 30.7868 55.9824 30.3428 56.6864 30.0548C57.3984 29.7588 58.3504 29.5908 59.5424 29.5508V28.5788H55.0184V27.6188H65.2544V28.5788H60.7184ZM63.3824 31.3868C63.3824 31.0668 63.0744 30.8348 62.4584 30.6908C61.8424 30.5468 61.0664 30.4748 60.1304 30.4748C59.1944 30.4748 58.4184 30.5468 57.8024 30.6908C57.1944 30.8348 56.8904 31.0668 56.8904 31.3868C56.8904 31.7148 57.1944 31.9508 57.8024 32.0948C58.4184 32.2468 59.1944 32.3228 60.1304 32.3228C61.0664 32.3228 61.8424 32.2468 62.4584 32.0948C63.0744 31.9508 63.3824 31.7148 63.3824 31.3868Z" fill="#999999"/>
<path d="M86.92 28.478C86.312 28.75 85.18 28.886 83.524 28.886H79.66V27.89H82.492V26.666C81.732 26.586 81.128 26.354 80.68 25.97C80.232 25.586 80.008 25.102 80.008 24.518C80.008 24.086 80.136 23.706 80.392 23.378C80.648 23.042 81.008 22.786 81.472 22.61C81.936 22.426 82.472 22.334 83.08 22.334C83.688 22.334 84.224 22.426 84.688 22.61C85.16 22.786 85.524 23.042 85.78 23.378C86.036 23.706 86.164 24.086 86.164 24.518C86.164 25.102 85.936 25.586 85.48 25.97C85.032 26.354 84.428 26.586 83.668 26.666V27.89C85.212 27.89 86.296 27.758 86.92 27.494V28.478ZM90.376 25.154V26.27H88.96V30.134H87.772V22.334H88.96V25.154H90.376ZM81.172 24.518C81.172 24.894 81.344 25.198 81.688 25.43C82.032 25.654 82.496 25.766 83.08 25.766C83.664 25.766 84.128 25.654 84.472 25.43C84.824 25.198 85 24.894 85 24.518C85 24.142 84.824 23.842 84.472 23.618C84.128 23.386 83.664 23.27 83.08 23.27C82.496 23.27 82.032 23.386 81.688 23.618C81.344 23.842 81.172 24.142 81.172 24.518ZM81.592 31.418H89.236V32.45H80.392V29.678H81.592V31.418ZM101.439 31.01V32.09H91.203V31.01H93.759V29.018H91.887V25.346H99.591V23.762H91.887V22.706H100.767V26.366H93.075V27.962H100.923V29.018H98.883V31.01H101.439ZM94.947 31.01H97.695V29.018H94.947V31.01Z" fill="white"/>
<defs>
<filter id="filter0_d_574_759" x="0.90918" y="0.986816" width="92" height="61" filterUnits="userSpaceOnUse" color-interpolation-filters="sRGB">
<feFlood flood-opacity="0" result="BackgroundImageFix"/>
<feColorMatrix in="SourceAlpha" type="matrix" values="0 0 0 0 0 0 0 0 0 0 0 0 0 0 0 0 0 0 127 0" result="hardAlpha"/>
<feOffset dy="4"/>
<feGaussianBlur stdDeviation="10"/>
<feComposite in2="hardAlpha" operator="out"/>
<feColorMatrix type="matrix" values="0 0 0 0 0 0 0 0 0 0 0 0 0 0 0 0 0 0 0.05 0"/>
<feBlend mode="normal" in2="BackgroundImageFix" result="effect1_dropShadow_574_759"/>
<feBlend mode="normal" in="SourceGraphic" in2="effect1_dropShadow_574_759" result="shape"/>
</filter>
</defs>
</svg>
