<svg width="25" height="24" viewBox="0 0 25 24" fill="none" xmlns="http://www.w3.org/2000/svg">
<path d="M15.81 18V18.75C15.81 19.5456 15.494 20.3087 14.9314 20.8713C14.3688 21.4339 13.6057 21.75 12.81 21.75C12.0144 21.75 11.2513 21.4339 10.6887 20.8713C10.1261 20.3087 9.81005 19.5456 9.81005 18.75V18M20.8575 16.4733C19.6538 15 18.804 14.25 18.804 10.1883C18.804 6.46875 16.9046 5.14359 15.3413 4.5C15.1336 4.41469 14.9382 4.21875 14.8749 4.00547C14.6007 3.07219 13.8319 2.25 12.81 2.25C11.7882 2.25 11.019 3.07266 10.7475 4.00641C10.6843 4.22203 10.4888 4.41469 10.2811 4.5C8.71598 5.14453 6.81848 6.465 6.81848 10.1883C6.81614 14.25 5.9663 15 4.76255 16.4733C4.2638 17.0836 4.70067 18 5.57301 18H20.0518C20.9194 18 21.3535 17.0808 20.8575 16.4733Z" stroke="#C4C4C4" stroke-width="1.5" stroke-linecap="round" stroke-linejoin="round"/>
</svg>
