<svg width="16" height="16" viewBox="0 0 16 16" fill="none" xmlns="http://www.w3.org/2000/svg">
<path fill-rule="evenodd" clip-rule="evenodd" d="M15.1536 0.220912C14.8591 -0.0736373 14.3815 -0.0736376 14.087 0.220912L7.99934 6.30856L1.91217 0.221399C1.61762 -0.0731507 1.14007 -0.0731508 0.845516 0.221399C0.550966 0.515949 0.550966 0.993508 0.845516 1.28806L6.93268 7.37522L0.220424 14.0875C-0.0741256 14.382 -0.0741258 14.8596 0.220424 15.1541C0.514974 15.4487 0.992533 15.4487 1.28708 15.1541L7.99934 8.44188L14.7121 15.1546C15.0066 15.4492 15.4842 15.4492 15.7787 15.1546C16.0733 14.8601 16.0733 14.3825 15.7787 14.088L9.066 7.37522L15.1536 1.28757C15.4482 0.993021 15.4482 0.515462 15.1536 0.220912Z" fill="white"/>
</svg>
