<svg width="16" height="15" viewBox="0 0 16 15" fill="none" xmlns="http://www.w3.org/2000/svg">
<path d="M15.1251 2.00006H13.1251V3.50006C13.1251 3.64451 13.0967 3.78755 13.0414 3.92101C12.9861 4.05447 12.9051 4.17573 12.8029 4.27788C12.7008 4.38002 12.5795 4.46104 12.4461 4.51632C12.3126 4.57161 12.1696 4.60006 12.0251 4.60006C11.8807 4.60006 11.7376 4.57161 11.6042 4.51632C11.4707 4.46104 11.3495 4.38002 11.2473 4.27788C11.1452 4.17573 11.0641 4.05447 11.0089 3.92101C10.9536 3.78755 10.9251 3.64451 10.9251 3.50006V2.00006H5.10013V3.50006C5.10013 3.7918 4.98424 4.07158 4.77795 4.27787C4.57166 4.48416 4.29187 4.60006 4.00013 4.60006C3.70839 4.60006 3.4286 4.48416 3.22231 4.27787C3.01602 4.07158 2.90013 3.7918 2.90013 3.50006V2.00006H0.900128C0.78114 1.9987 0.663089 2.02122 0.552956 2.06629C0.442823 2.11135 0.342845 2.17804 0.258935 2.26242C0.175026 2.3468 0.108889 2.44714 0.0644353 2.55752C0.019982 2.6679 -0.00188473 2.78608 0.000128526 2.90506V14.0951C-0.00185798 14.2119 0.0192006 14.3281 0.0621014 14.4368C0.105002 14.5455 0.168905 14.6448 0.250159 14.7288C0.331414 14.8129 0.428428 14.8801 0.535662 14.9266C0.642895 14.9731 0.758247 14.9981 0.875129 15.0001H15.1251C15.242 14.9981 15.3574 14.9731 15.4646 14.9266C15.5718 14.8801 15.6688 14.8129 15.7501 14.7288C15.8314 14.6448 15.8953 14.5455 15.9382 14.4368C15.9811 14.3281 16.0021 14.2119 16.0001 14.0951V2.90506C16.0021 2.78818 15.9811 2.67205 15.9382 2.56331C15.8953 2.45457 15.8314 2.35534 15.7501 2.2713C15.6688 2.18726 15.5718 2.12005 15.4646 2.07351C15.3574 2.02697 15.242 2.00201 15.1251 2.00006ZM4.00013 12.0001H3.00013V11.0001H4.00013V12.0001ZM4.00013 9.50006H3.00013V8.50006H4.00013V9.50006ZM4.00013 7.00006H3.00013V6.00006H4.00013V7.00006ZM7.00013 12.0001H6.00013V11.0001H7.00013V12.0001ZM7.00013 9.50006H6.00013V8.50006H7.00013V9.50006ZM7.00013 7.00006H6.00013V6.00006H7.00013V7.00006ZM10.0001 12.0001H9.00013V11.0001H10.0001V12.0001ZM10.0001 9.50006H9.00013V8.50006H10.0001V9.50006ZM10.0001 7.00006H9.00013V6.00006H10.0001V7.00006ZM13.0001 12.0001H12.0001V11.0001H13.0001V12.0001ZM13.0001 9.50006H12.0001V8.50006H13.0001V9.50006ZM13.0001 7.00006H12.0001V6.00006H13.0001V7.00006Z" fill="#C4C4C4"/>
<path d="M4 4C4.13261 4 4.25979 3.94732 4.35355 3.85355C4.44732 3.75979 4.5 3.63261 4.5 3.5V0.5C4.5 0.367392 4.44732 0.240215 4.35355 0.146447C4.25979 0.0526784 4.13261 0 4 0C3.86739 0 3.74021 0.0526784 3.64645 0.146447C3.55268 0.240215 3.5 0.367392 3.5 0.5V3.5C3.5 3.63261 3.55268 3.75979 3.64645 3.85355C3.74021 3.94732 3.86739 4 4 4Z" fill="#C4C4C4"/>
<path d="M12 4C12.1326 4 12.2598 3.94732 12.3536 3.85355C12.4473 3.75979 12.5 3.63261 12.5 3.5V0.5C12.5 0.367392 12.4473 0.240215 12.3536 0.146447C12.2598 0.0526784 12.1326 0 12 0C11.8674 0 11.7402 0.0526784 11.6464 0.146447C11.5527 0.240215 11.5 0.367392 11.5 0.5V3.5C11.5 3.63261 11.5527 3.75979 11.6464 3.85355C11.7402 3.94732 11.8674 4 12 4Z" fill="#C4C4C4"/>
</svg>
