<svg width="18" height="17" viewBox="0 0 18 17" fill="none" xmlns="http://www.w3.org/2000/svg">
<path fill-rule="evenodd" clip-rule="evenodd" d="M8.25 16.2427C8.25 16.6569 8.58579 16.9927 9 16.9927C9.41421 16.9927 9.75 16.6569 9.75 16.2427V9.46825H16.5239C16.9381 9.46825 17.2739 9.13246 17.2739 8.71825C17.2739 8.30404 16.9381 7.96825 16.5239 7.96825H9.75V1.19434C9.75 0.780122 9.41421 0.444336 9 0.444336C8.58579 0.444336 8.25 0.780122 8.25 1.19434V7.96825H1.47559C1.06137 7.96825 0.725586 8.30404 0.725586 8.71825C0.725586 9.13246 1.06137 9.46825 1.47559 9.46825H8.25V16.2427Z" fill="#C4C4C4"/>
</svg>
