<svg width="21" height="20" viewBox="0 0 21 20" fill="none" xmlns="http://www.w3.org/2000/svg">
<path fill-rule="evenodd" clip-rule="evenodd" d="M14.1173 7.3028C14.1173 10.4178 11.5166 13.0075 8.22809 13.0075C4.93957 13.0075 2.33887 10.4178 2.33887 7.3028C2.33887 4.18775 4.93957 1.59814 8.22809 1.59814C11.5166 1.59814 14.1173 4.18775 14.1173 7.3028ZM12.9575 12.8386C11.676 13.8806 10.0271 14.5075 8.22809 14.5075C4.14714 14.5075 0.838867 11.2818 0.838867 7.3028C0.838867 3.32378 4.14714 0.0981445 8.22809 0.0981445C12.3091 0.0981445 15.6173 3.32378 15.6173 7.3028C15.6173 9.04151 14.9856 10.6364 13.9338 11.8811L20.3877 18.1737L19.3773 19.0981L12.9575 12.8386Z" fill="#CACACA"/>
</svg>
