<svg width="14" height="14" viewBox="0 0 14 14" fill="none" xmlns="http://www.w3.org/2000/svg">
<path d="M11.3733 4.6602L7.0001 8.9232L2.62685 4.6602C2.54871 4.58389 2.44382 4.54116 2.3346 4.54116C2.22537 4.54116 2.12048 4.58389 2.04235 4.6602C2.00451 4.69727 1.97446 4.74152 1.95394 4.79035C1.93342 4.83918 1.92285 4.89161 1.92285 4.94458C1.92285 4.99755 1.93342 5.04998 1.95394 5.09881C1.97446 5.14764 2.00451 5.19189 2.04235 5.22895L6.69472 9.76495C6.77642 9.84459 6.886 9.88916 7.0001 9.88916C7.11419 9.88916 7.22377 9.84459 7.30547 9.76495L11.9578 5.22983C11.9959 5.19273 12.0262 5.14838 12.0469 5.09939C12.0676 5.05039 12.0782 4.99776 12.0782 4.94458C12.0782 4.8914 12.0676 4.83876 12.0469 4.78977C12.0262 4.74078 11.9959 4.69643 11.9578 4.65933C11.8797 4.58301 11.7748 4.54028 11.6656 4.54028C11.5564 4.54028 11.4515 4.58301 11.3733 4.65933V4.6602Z" fill="#C4C4C4"/>
</svg>
