<svg width="13" height="15" viewBox="0 0 13 15" fill="none" xmlns="http://www.w3.org/2000/svg">
<path fill-rule="evenodd" clip-rule="evenodd" d="M1.86772 4.1983L2.96337 3.10265V11.6499C2.96337 12.0641 3.29916 12.3999 3.71337 12.3999C4.12758 12.3999 4.46337 12.0641 4.46337 11.6499V3.21594L5.44574 4.1983C5.73863 4.49119 6.2135 4.49119 6.5064 4.1983C6.79929 3.90541 6.79929 3.43053 6.5064 3.13764L4.31235 0.943599C4.26892 0.886063 4.2174 0.834983 4.15947 0.792052C3.86506 0.52569 3.41026 0.534441 3.1264 0.818305L0.807065 3.13764C0.514171 3.43053 0.514171 3.90541 0.807065 4.1983C1.09996 4.49119 1.57483 4.49119 1.86772 4.1983Z" fill="#9A9A9A"/>
<path fill-rule="evenodd" clip-rule="evenodd" d="M8.0064 11.3896L9.10204 12.4852V3.93799C9.10204 3.52377 9.43783 3.18799 9.85204 3.18799C10.2663 3.18799 10.602 3.52377 10.602 3.93799V12.372L11.5844 11.3896C11.8773 11.0967 12.3522 11.0967 12.6451 11.3896C12.938 11.6825 12.938 12.1574 12.6451 12.4502L10.451 14.6443C10.4076 14.7018 10.3561 14.7529 10.2981 14.7958C10.0037 15.0622 9.54894 15.0534 9.26507 14.7696L6.94574 12.4502C6.65284 12.1574 6.65284 11.6825 6.94574 11.3896C7.23863 11.0967 7.7135 11.0967 8.0064 11.3896Z" fill="#9A9A9A"/>
</svg>
