<svg width="26" height="21" viewBox="0 0 26 21" fill="none" xmlns="http://www.w3.org/2000/svg">
    <path fill-rule="evenodd" clip-rule="evenodd" d="M24.583 16.676C24.583 17.803 23.649 18.72 22.5 18.72H3.382C2.234 18.72 1.3 17.803 1.3 16.676V5.737C1.3 4.61 2.234 3.692 3.382 3.692H7.448L9.176 1.481C9.265 1.367 9.404 1.3 9.551 1.3H16.44C16.601 1.3 16.749 1.378 16.835 1.509L18.288 3.692H22.5C23.649 3.692 24.583 4.61 24.583 5.737V16.676ZM22.5 2.392H18.984L17.917 0.789C17.589 0.295 17.037 0 16.44 0H9.551C9.007 0 8.484 0.254 8.152 0.68L6.814 2.392H3.382C1.517 2.392 0 3.893 0 5.737V16.676C0 18.52 1.517 20.02 3.382 20.02H22.5C24.366 20.02 25.883 18.52 25.883 16.676V5.737C25.883 3.893 24.366 2.392 22.5 2.392ZM12.8452 15.5046C10.3802 15.5046 8.3742 13.4986 8.3742 11.0336C8.3742 8.5676 10.3802 6.5626 12.8452 6.5626C15.3102 6.5626 17.3162 8.5676 17.3162 11.0336C17.3162 13.4986 15.3102 15.5046 12.8452 15.5046ZM12.8452 5.2626C9.6632 5.2626 7.0742 7.8516 7.0742 11.0336C7.0742 14.2156 9.6632 16.8046 12.8452 16.8046C16.0272 16.8046 18.6162 14.2156 18.6162 11.0336C18.6162 7.8516 16.0272 5.2626 12.8452 5.2626ZM19.2633 6.982C19.2633 6.27 19.8403 5.693 20.5513 5.693C21.2623 5.693 21.8403 6.27 21.8403 6.982C21.8403 7.693 21.2623 8.27 20.5513 8.27C19.8403 8.27 19.2633 7.693 19.2633 6.982Z" fill="black"/>
    <mask id="mask0_253_2445" style="mask-type:alpha" maskUnits="userSpaceOnUse" x="0" y="0" width="26" height="21">
    <path fill-rule="evenodd" clip-rule="evenodd" d="M24.583 16.676C24.583 17.803 23.649 18.72 22.5 18.72H3.382C2.234 18.72 1.3 17.803 1.3 16.676V5.737C1.3 4.61 2.234 3.692 3.382 3.692H7.448L9.176 1.481C9.265 1.367 9.404 1.3 9.551 1.3H16.44C16.601 1.3 16.749 1.378 16.835 1.509L18.288 3.692H22.5C23.649 3.692 24.583 4.61 24.583 5.737V16.676ZM22.5 2.392H18.984L17.917 0.789C17.589 0.295 17.037 0 16.44 0H9.551C9.007 0 8.484 0.254 8.152 0.68L6.814 2.392H3.382C1.517 2.392 0 3.893 0 5.737V16.676C0 18.52 1.517 20.02 3.382 20.02H22.5C24.366 20.02 25.883 18.52 25.883 16.676V5.737C25.883 3.893 24.366 2.392 22.5 2.392ZM12.8452 15.5046C10.3802 15.5046 8.3742 13.4986 8.3742 11.0336C8.3742 8.5676 10.3802 6.5626 12.8452 6.5626C15.3102 6.5626 17.3162 8.5676 17.3162 11.0336C17.3162 13.4986 15.3102 15.5046 12.8452 15.5046ZM12.8452 5.2626C9.6632 5.2626 7.0742 7.8516 7.0742 11.0336C7.0742 14.2156 9.6632 16.8046 12.8452 16.8046C16.0272 16.8046 18.6162 14.2156 18.6162 11.0336C18.6162 7.8516 16.0272 5.2626 12.8452 5.2626ZM19.2633 6.982C19.2633 6.27 19.8403 5.693 20.5513 5.693C21.2623 5.693 21.8403 6.27 21.8403 6.982C21.8403 7.693 21.2623 8.27 20.5513 8.27C19.8403 8.27 19.2633 7.693 19.2633 6.982Z" fill="white"/>
    </mask>
    <g mask="url(#mask0_253_2445)">
    <rect width="26" height="21" fill="#999999"/>
    </g>
</svg>
