<svg width="27" height="21" viewBox="0 0 27 21" fill="none" xmlns="http://www.w3.org/2000/svg">
<path fill-rule="evenodd" clip-rule="evenodd" d="M24.9268 17.5134C24.9268 18.6404 23.9928 19.5574 22.8438 19.5574H3.72575C2.57775 19.5574 1.64375 18.6404 1.64375 17.5134V6.5744C1.64375 5.4474 2.57775 4.5294 3.72575 4.5294H7.79175L9.51975 2.3184C9.60875 2.2044 9.74775 2.1374 9.89475 2.1374H16.7838C16.9447 2.1374 17.0928 2.2154 17.1787 2.3464L18.6318 4.5294H22.8438C23.9928 4.5294 24.9268 5.4474 24.9268 6.5744V17.5134ZM22.8438 3.2294H19.3277L18.2607 1.6264C17.9328 1.1324 17.3808 0.837402 16.7838 0.837402H9.89475C9.35075 0.837402 8.82775 1.0914 8.49575 1.5174L7.15775 3.2294H3.72575C1.86075 3.2294 0.34375 4.7304 0.34375 6.5744V17.5134C0.34375 19.3574 1.86075 20.8574 3.72575 20.8574H22.8438C24.7097 20.8574 26.2267 19.3574 26.2267 17.5134V6.5744C26.2267 4.7304 24.7097 3.2294 22.8438 3.2294ZM13.189 16.342C10.724 16.342 8.71795 14.336 8.71795 11.871C8.71795 9.405 10.724 7.4 13.189 7.4C15.6539 7.4 17.66 9.405 17.66 11.871C17.66 14.336 15.6539 16.342 13.189 16.342ZM13.1889 6.1C10.007 6.1 7.41795 8.689 7.41795 11.871C7.41795 15.053 10.007 17.642 13.1889 17.642C16.371 17.642 18.9599 15.053 18.9599 11.871C18.9599 8.689 16.371 6.1 13.1889 6.1ZM19.607 7.8194C19.607 7.1074 20.184 6.5304 20.8951 6.5304C21.6061 6.5304 22.184 7.1074 22.184 7.8194C22.184 8.5304 21.6061 9.1074 20.8951 9.1074C20.184 9.1074 19.607 8.5304 19.607 7.8194Z" fill="#999"/>
</svg>
