<svg width="44" height="44" viewBox="0 0 44 44" fill="none" xmlns="http://www.w3.org/2000/svg">
<circle cx="22" cy="22" r="22" fill="#3894FF"/>
<path fill-rule="evenodd" clip-rule="evenodd" d="M23.1098 10.691C23.0241 10.5463 22.9029 10.4251 22.7582 10.3394L22.7118 10.2929C22.5165 10.0976 22.2605 9.99997 22.0045 10C21.7486 9.99997 21.4926 10.0976 21.2973 10.2929L11.2929 20.2973C10.9024 20.6878 10.9024 21.321 11.2929 21.7115C11.6834 22.1021 12.3166 22.1021 12.7071 21.7115L21.249 13.1696L21.249 32.2005C21.249 32.7528 21.6967 33.2005 22.249 33.2005C22.8013 33.2005 23.249 32.7528 23.249 32.2005L23.249 13.6586L31.302 21.7115C31.6925 22.1021 32.3257 22.1021 32.7162 21.7115C33.1067 21.321 33.1067 20.6878 32.7162 20.2973L23.1098 10.691Z" fill="white"/>
</svg>
