<svg width="23" height="25" viewBox="0 0 23 25" fill="none" xmlns="http://www.w3.org/2000/svg">
<path fill-rule="evenodd" clip-rule="evenodd" d="M12.4536 1.52837C12.3678 1.38372 12.2467 1.26254 12.102 1.17678L12.0555 1.1303C11.8602 0.935004 11.6043 0.837373 11.3483 0.837402C11.0923 0.837374 10.8364 0.935005 10.6411 1.1303L0.636643 11.1347C0.246119 11.5253 0.246119 12.1584 0.636643 12.5489C1.02717 12.9395 1.66033 12.9395 2.05086 12.5489L10.5928 4.00702L10.5928 23.0379C10.5928 23.5902 11.0405 24.0379 11.5928 24.0379C12.1451 24.0379 12.5928 23.5902 12.5928 23.0379L12.5928 4.49598L20.6457 12.5489C21.0363 12.9395 21.6694 12.9395 22.0599 12.5489C22.4505 12.1584 22.4505 11.5253 22.0599 11.1347L12.4536 1.52837Z" fill="white"/>
</svg>
