<svg width="21" height="12" viewBox="0 0 21 12" fill="none" xmlns="http://www.w3.org/2000/svg">
<path fill-rule="evenodd" clip-rule="evenodd" d="M3.58308 9.33664L0.6344 11L1.12572 11.871L4.6171 9.90149C5.70483 10.4404 6.91139 10.8682 8.20993 11.099C11.9226 11.7591 16.3155 10.7958 20.7336 6.3777L20.4672 6.11127L20.7336 5.84484C19.4925 4.60377 18.2534 3.6353 17.0308 2.89886L20.6257 0.870978L20.1344 0L16.0022 2.33098C13.2406 0.943545 10.586 0.701062 8.20993 1.12351C4.53212 1.77741 1.59212 4.01103 0 5.87351L0.278138 6.11127L0 6.34903C0.845049 7.33758 2.06982 8.43068 3.58308 9.33664ZM4.5974 8.76446C3.17542 7.99114 1.99188 7.02409 1.13059 6.11127C2.67433 4.47518 5.25327 2.66487 8.38498 2.10807C8.64316 2.06217 8.90552 2.0247 9.17179 1.99655C7.31411 2.49113 5.94549 4.18491 5.94549 6.19835C5.94549 6.77398 6.05735 7.32347 6.26052 7.82629L4.5974 8.76446ZM5.68946 9.29656C6.52752 9.65868 7.43058 9.94478 8.38498 10.1145L8.41216 10.1193C7.74112 9.79674 7.16564 9.30701 6.73973 8.7041L5.68946 9.29656ZM7.61661 8.20945C8.22751 9.02124 9.19911 9.54618 10.2933 9.54618C12.1423 9.54618 13.6411 8.04731 13.6411 6.19835C13.6411 5.75605 13.5554 5.33379 13.3996 4.94728L7.61661 8.20945ZM14.2765 4.45261C14.511 4.98693 14.6411 5.57744 14.6411 6.19835C14.6411 7.93819 13.6192 9.43935 12.1429 10.1343C14.4716 9.74144 16.9927 8.55092 19.5734 6.11127C18.3713 4.97485 17.1821 4.10947 16.0193 3.4695L14.2765 4.45261ZM14.9348 2.9331L13.7716 3.58927C13.1868 2.81092 12.3469 2.23523 11.376 1.9864C12.5162 2.09702 13.708 2.39388 14.9348 2.9331ZM12.8908 4.08611L7.14137 7.3294C7.01457 6.9761 6.94549 6.59529 6.94549 6.19835C6.94549 4.3494 8.44436 2.85053 10.2933 2.85053C11.3414 2.85053 12.277 3.33214 12.8908 4.08611Z" fill="#C4C4C4"/>
</svg>