<svg width="226" height="31" viewBox="0 0 226 31" fill="none" xmlns="http://www.w3.org/2000/svg">
<path d="M26.568 6.696H17.028V30.24H10.476V6.696H0.936V0.899999H26.568V6.696ZM30.0842 0.899999H51.9002V6.588H36.6362V12.564H50.6402V18.252H36.6362V24.552H52.2242V30.24H30.0842V0.899999ZM74.5912 24.552H63.2152L61.1632 30.24H54.3952L65.7712 0.899999H72.5752L83.9512 30.24H76.6432L74.5912 24.552ZM72.5752 18.864L68.9032 8.64L65.2312 18.864H72.5752ZM86.8967 0.899999H92.1167L102.233 17.316L112.349 0.899999H117.569V30.24H111.017V14.148L104.213 25.416H100.253L93.4487 14.148V30.24H86.8967V0.899999ZM122.756 0.899999H134.024C136.544 0.899999 138.704 1.344 140.504 2.232C142.328 3.12 143.72 4.368 144.68 5.976C145.64 7.584 146.12 9.468 146.12 11.628C146.12 13.812 145.64 15.72 144.68 17.352C143.72 18.96 142.328 20.208 140.504 21.096C138.704 21.984 136.544 22.428 134.024 22.428H129.308V30.24H122.756V0.899999ZM133.736 16.632C135.584 16.632 137.012 16.2 138.02 15.336C139.052 14.472 139.568 13.236 139.568 11.628C139.568 10.02 139.052 8.796 138.02 7.956C137.012 7.116 135.584 6.696 133.736 6.696H129.308V16.632H133.736ZM156.203 0.899999V24.444H170.855V30.24H149.651V0.899999H156.203ZM192.927 24.552H181.551L179.499 30.24H172.731L184.107 0.899999H190.911L202.287 30.24H194.979L192.927 24.552ZM190.911 18.864L187.239 8.64L183.567 18.864H190.911ZM214.91 21.024V30.24H208.358V21.024L197.378 0.899999H204.866L211.922 14.76L218.942 0.899999H225.89L214.91 21.024Z" fill="#3894FF"/>
</svg>
