<svg width="12" height="17" viewBox="0 0 12 17" fill="none" xmlns="http://www.w3.org/2000/svg">
<mask id="path-1-inside-1_221_585" fill="white">
<path fill-rule="evenodd" clip-rule="evenodd" d="M0.178147 8.44813L10.4821 15.9031C10.7244 16.0785 11.114 16.0785 11.3564 15.9031C11.5987 15.7275 11.5987 15.446 11.3564 15.2705L1.49177 8.13357L11.3564 0.996596C11.5987 0.821107 11.5987 0.539588 11.3564 0.364023C11.2374 0.277934 11.0768 0.231575 10.9214 0.231575C10.7661 0.231575 10.6055 0.274623 10.4865 0.364023L0.182576 7.81894C-0.0606213 7.99112 -0.0606127 8.27595 0.178147 8.44813Z"/>
</mask>
<path fill-rule="evenodd" clip-rule="evenodd" d="M0.178147 8.44813L10.4821 15.9031C10.7244 16.0785 11.114 16.0785 11.3564 15.9031C11.5987 15.7275 11.5987 15.446 11.3564 15.2705L1.49177 8.13357L11.3564 0.996596C11.5987 0.821107 11.5987 0.539588 11.3564 0.364023C11.2374 0.277934 11.0768 0.231575 10.9214 0.231575C10.7661 0.231575 10.6055 0.274623 10.4865 0.364023L0.182576 7.81894C-0.0606213 7.99112 -0.0606127 8.27595 0.178147 8.44813Z" fill="#C4C4C4"/>
<path d="M0.178147 8.44813L1.05741 7.23285L1.05552 7.23148L0.178147 8.44813ZM10.4821 15.9031L11.3619 14.6882L11.3613 14.6878L10.4821 15.9031ZM11.3564 15.9031L12.2362 17.1179L12.2364 17.1177L11.3564 15.9031ZM11.3564 15.2705L12.2362 14.0556L12.2356 14.0552L11.3564 15.2705ZM1.49177 8.13357L0.612514 6.91829L-1.06724 8.13358L0.612519 9.34886L1.49177 8.13357ZM11.3564 0.996596L12.2356 2.21188L12.2362 2.21145L11.3564 0.996596ZM11.3564 0.364023L12.2364 -0.850655L12.2359 -0.851068L11.3564 0.364023ZM10.4865 0.364023L11.3658 1.5793L11.3769 1.57128L11.3878 1.56306L10.4865 0.364023ZM0.182576 7.81894L1.04931 9.04318L1.0556 9.03874L1.06183 9.03422L0.182576 7.81894ZM-0.701111 9.66341L9.60283 17.1183L11.3613 14.6878L1.05741 7.23285L-0.701111 9.66341ZM9.60224 17.1179C10.0228 17.4225 10.5036 17.5347 10.9192 17.5347C11.3349 17.5347 11.8156 17.4225 12.2362 17.1179L10.4765 14.6882C10.6548 14.5591 10.8195 14.5347 10.9192 14.5347C11.0189 14.5347 11.1836 14.5591 11.3619 14.6882L9.60224 17.1179ZM12.2364 17.1177C12.6701 16.8035 13.0381 16.2695 13.0381 15.5867C13.0381 14.9039 12.67 14.3698 12.2362 14.0556L10.4765 16.4853C10.285 16.3466 10.0381 16.0411 10.0381 15.5867C10.0381 15.1325 10.2849 14.827 10.4763 14.6884L12.2364 17.1177ZM12.2356 14.0552L2.37101 6.91828L0.612519 9.34886L10.4771 16.4858L12.2356 14.0552ZM2.37102 9.34886L12.2356 2.21188L10.4771 -0.218687L0.612514 6.91829L2.37102 9.34886ZM12.2362 2.21145C12.67 1.89726 13.0381 1.36319 13.0381 0.680338C13.0381 -0.00245476 12.6701 -0.536463 12.2364 -0.850655L10.4763 1.5787C10.2849 1.44007 10.0381 1.13461 10.0381 0.680338C10.0381 0.226011 10.285 -0.0795593 10.4765 -0.21826L12.2362 2.21145ZM12.2359 -0.851068C11.8255 -1.1481 11.3457 -1.26842 10.9214 -1.26842V1.73158C10.8531 1.73158 10.7868 1.72185 10.7212 1.70217C10.6567 1.68281 10.5706 1.64699 10.4768 1.57911L12.2359 -0.851068ZM10.9214 -1.26842C10.5203 -1.26842 10.021 -1.16258 9.58525 -0.835016L11.3878 1.56306C11.2825 1.64224 11.1844 1.68245 11.1143 1.7031C11.0434 1.72401 10.979 1.73158 10.9214 1.73158V-1.26842ZM9.60727 -0.851257L-0.696681 6.60366L1.06183 9.03422L11.3658 1.5793L9.60727 -0.851257ZM-0.68416 6.5947C-1.1304 6.91063 -1.49707 7.44764 -1.50035 8.12628C-1.50363 8.80417 -1.14283 9.34487 -0.699221 9.66477L1.05552 7.23148C1.26036 7.37921 1.50178 7.6914 1.49961 8.14079C1.49743 8.59093 1.25235 8.89944 1.04931 9.04318L-0.68416 6.5947Z" fill="#DDDDDD" mask="url(#path-1-inside-1_221_585)"/>
</svg>
