<svg width="151" height="21" viewBox="0 0 151 21" fill="none" xmlns="http://www.w3.org/2000/svg">
<path d="M17.712 4.464H11.352V20.16H6.984V4.464H0.624V0.599999H17.712V4.464ZM20.0561 0.599999H34.6001V4.392H24.4241V8.376H33.7601V12.168H24.4241V16.368H34.8161V20.16H20.0561V0.599999ZM49.7274 16.368H42.1434L40.7754 20.16H36.2634L43.8474 0.599999H48.3834L55.9674 20.16H51.0954L49.7274 16.368ZM48.3834 12.576L45.9354 5.76L43.4874 12.576H48.3834ZM57.9311 0.599999H61.4111L68.1551 11.544L74.8991 0.599999H78.3791V20.16H74.0111V9.432L69.4751 16.944H66.8351L62.2991 9.432V20.16H57.9311V0.599999ZM81.8374 0.599999H89.3494C91.0294 0.599999 92.4694 0.895999 93.6694 1.488C94.8854 2.08 95.8134 2.912 96.4534 3.984C97.0934 5.056 97.4134 6.312 97.4134 7.752C97.4134 9.208 97.0934 10.48 96.4534 11.568C95.8134 12.64 94.8854 13.472 93.6694 14.064C92.4694 14.656 91.0294 14.952 89.3494 14.952H86.2054V20.16H81.8374V0.599999ZM89.1574 11.088C90.3894 11.088 91.3414 10.8 92.0134 10.224C92.7014 9.648 93.0454 8.824 93.0454 7.752C93.0454 6.68 92.7014 5.864 92.0134 5.304C91.3414 4.744 90.3894 4.464 89.1574 4.464H86.2054V11.088H89.1574ZM104.135 0.599999V16.296H113.903V20.16H99.7671V0.599999H104.135ZM128.618 16.368H121.034L119.666 20.16H115.154L122.738 0.599999H127.274L134.858 20.16H129.986L128.618 16.368ZM127.274 12.576L124.826 5.76L122.378 12.576H127.274ZM143.273 14.016V20.16H138.905V14.016L131.585 0.599999H136.577L141.281 9.84L145.961 0.599999H150.593L143.273 14.016Z" fill="#3894FF"/>
</svg>
