<svg width="22" height="22" viewBox="0 0 22 22" fill="none" xmlns="http://www.w3.org/2000/svg">
<path d="M7.57992 3.58208L8.37436 3.2416C8.8578 3.03442 9.17125 2.55906 9.17125 2.03309C9.17125 1.30693 9.75992 0.718262 10.4861 0.718262H11.4928C12.2189 0.718262 12.8076 1.30693 12.8076 2.03309C12.8076 2.55906 13.1211 3.03442 13.6045 3.2416L14.4884 3.62042C15.0278 3.8516 15.6475 3.7947 16.1358 3.46917L16.219 3.41369C16.9525 2.92469 17.9417 3.10599 18.4541 3.82334L18.623 4.05979C19.0325 4.63307 18.9224 5.42646 18.3722 5.86656C17.8838 6.2573 17.7347 6.93612 18.0145 7.49556L18.2562 7.97908C18.4929 8.45237 18.9078 8.81227 19.4098 8.9796L19.5389 9.02264C20.2966 9.27519 20.8076 9.98422 20.8076 10.7828V11.0879C20.8076 11.8189 20.2791 12.4427 19.5581 12.5629C18.9887 12.6578 18.5247 13.072 18.3661 13.6271L18.1493 14.3859C17.9945 14.9277 18.1456 15.5108 18.5441 15.9092C19.1787 16.5439 19.1441 17.5829 18.4686 18.174L18.013 18.5726C17.352 19.151 16.3445 19.0716 15.7822 18.3969C15.3177 17.8395 14.5308 17.6749 13.8818 17.9994L13.6772 18.1016C13.1443 18.3681 12.8076 18.9128 12.8076 19.5087C12.8076 20.3776 12.1033 21.0819 11.2344 21.0819H10.1224C9.39629 21.0819 8.80762 20.4932 8.80762 19.7671C8.80762 19.2411 8.49417 18.7657 8.01073 18.5586L7.21629 18.2181C6.64003 17.9711 5.97147 18.0999 5.52815 18.5432C4.92938 19.142 3.95858 19.142 3.35981 18.5432L2.98269 18.1661C2.38392 17.5673 2.38392 16.5965 2.98269 15.9977C3.42601 15.5544 3.55477 14.8858 3.3078 14.3096L2.91128 13.3844C2.73257 12.9674 2.36002 12.6651 1.91515 12.5761C1.27117 12.4473 0.807617 11.8819 0.807617 11.2252V10.4634C0.807617 9.66619 1.38396 8.98584 2.1703 8.85478C2.68495 8.76901 3.12748 8.44216 3.36082 7.9755L3.59869 7.49976C3.88633 6.92447 3.77358 6.22968 3.31878 5.77488C2.73523 5.19132 2.73523 4.2452 3.31878 3.66165L3.72345 3.25697C4.32222 2.6582 5.29302 2.6582 5.89178 3.25697C6.3351 3.70029 7.00367 3.82905 7.57992 3.58208Z" stroke="#C4C4C4" stroke-linecap="round"/>
<circle cx="10.6257" cy="10.8999" r="4.22727" stroke="#C4C4C4"/>
</svg>
